<svg width="423" height="424" viewBox="0 0 423 424" fill="none" xmlns="http://www.w3.org/2000/svg">
<g style="mix-blend-mode:soft-light" clip-path="url(#clip0_121_609)">
<g opacity="0.9">
<path d="M254.486 7.81323C255.461 7.91426 256.437 8.04898 257.412 8.15001C256.437 8.0153 255.461 7.91426 254.486 7.81323Z" fill="white"/>
<path d="M315.702 27.6156L310.354 24.7193C310.186 24.652 310.052 24.5509 309.883 24.4836C309.312 24.1805 308.774 23.9111 308.202 23.6416C308.572 23.81 308.942 23.9784 309.312 24.1805C308.471 23.7427 307.63 23.3049 306.755 22.8334L302.988 21.1158C303.325 21.2842 303.661 21.4526 303.964 21.5873C299.389 19.4656 294.68 17.546 289.87 15.8285C269.319 10.9789 248.095 8.95825 211.601 8.35205C279.242 11.6861 302.484 21.3516 310.287 24.6856C312.103 25.6286 313.886 26.5716 315.669 27.5819L315.702 27.6156Z" fill="white"/>
<path d="M261.852 6.16299C259.229 5.52312 256.538 4.88325 254.284 4.37808L252.871 4.07499C245.068 2.8626 229.596 5.28738 211.668 8.35203C213.215 8.14997 214.762 7.9479 216.276 7.77951C245.976 4.37808 254.553 4.9506 261.852 6.12931V6.16299Z" fill="white"/>
<path d="M239.955 1.95324C237.601 1.65014 234.708 1.31337 232.455 1.04395C232.421 1.04395 232.388 1.04395 232.354 1.04395C231.917 1.14498 231.849 1.17866 211.702 8.38565C235.146 2.1553 237.466 2.08795 240.595 2.02059C240.393 2.02059 240.191 1.95324 239.989 1.95324H239.955Z" fill="white"/>
<path d="M139.89 411.539C140.394 411.708 140.932 411.91 141.471 412.078C145.238 413.358 149.879 414.806 153.478 415.917C157.178 416.995 162.19 418.174 165.924 419.049C117.085 407.094 75.4441 380.32 42.1113 339.436L51.4956 351.021C52.6729 352.334 53.7156 353.513 54.6574 354.591C58.1218 358.194 62.2254 362.404 66.4298 366.411C69.0197 368.769 72.2487 371.631 76.6886 375.572C78.9758 377.424 81.6667 379.478 84.4248 381.499C108.104 398.978 124.283 405.41 139.89 411.539Z" fill="white"/>
<path d="M222.263 0.572518C221.96 0.471485 221.557 0.303098 221.22 0.202065C221.22 0.202065 221.187 0.202065 221.153 0.202065C218.967 0.101033 217.621 0.067355 217.487 0.067355C216.242 0.067355 214.695 0 213.383 0C215.872 0.101033 215.94 0.168388 217.05 1.6502C216.579 3.35653 214.785 5.60169 211.668 8.3857C221.624 2.86259 221.927 1.78491 222.297 0.572518H222.263Z" fill="white"/>
<path d="M14.2278 289.627C53.0431 381.364 150.216 416.49 184.558 422.283C184.726 422.283 184.894 422.316 185.062 422.35C186.879 422.586 189.166 422.821 190.881 422.99L194.48 423.293C194.48 423.293 194.615 423.293 194.682 423.293C174.434 421.407 35.1154 380.287 3.80078 253.659C4.13714 255.545 4.47349 257.364 4.80985 259.081C7.13069 267.905 10.6961 279.456 13.7233 288.246C13.8914 288.717 14.0596 289.122 14.2278 289.593V289.627Z" fill="white"/>
<path d="M205.748 1.65028C210.558 3.46887 210.794 4.51287 211.668 8.38579C215.2 0.505247 207.901 0.336859 201.443 0.202148C199.189 0.336859 196.196 0.538924 193.942 0.673634L191.79 0.875699C195.086 0.639956 201.947 0.202148 205.748 1.6166V1.65028Z" fill="white"/>
<path d="M206.892 423.933C207.699 423.933 208.506 423.966 209.313 423.966H209.65C209.65 423.966 209.919 423.966 210.053 423.966C210.962 423.966 211.87 423.966 212.778 423.966C213.552 423.966 214.325 423.966 214.998 423.966C215.031 423.966 215.065 423.966 215.132 423.966C199.088 423.697 -30.9449 336.405 6.22235 159.093C6.22235 159.093 6.22235 159.093 6.22235 159.126C4.9442 164.11 3.69969 170.846 2.62335 175.898C1.58065 182.33 0.739765 191.019 0.0334196 197.519C-3.76739 356.577 185.836 421.912 206.892 423.966V423.933Z" fill="white"/>
<path d="M172.214 3.70448C171.776 3.80551 171.339 3.87286 170.902 3.9739C196.768 -0.471537 207.598 5.92719 211.668 8.38565C204.336 0.303046 191.588 0.471434 172.214 3.70448Z" fill="white"/>
<path d="M26.8746 107.835C-66.5648 288.179 195.153 415.547 226.468 423.461C226.669 423.461 226.905 423.461 227.107 423.428L228.486 423.326C228.688 423.326 228.923 423.293 229.158 423.259C230.773 423.124 232.657 422.922 234.271 422.754C234.473 422.754 234.675 422.72 234.877 422.687C197.81 394.465 152.705 379.108 116.95 348.764C99.46 333.913 58.492 299.124 34.5435 252.615C-13.3534 159.564 29.2964 100.224 50.184 74.6631C49.4441 75.505 48.7377 76.347 48.0314 77.1889L44.4996 81.3986C38.9498 89.0434 31.9872 99.4497 27.0092 107.532C26.9419 107.633 26.9083 107.734 26.841 107.835H26.8746Z" fill="white"/>
<path d="M162.661 5.7252C162.661 5.7252 162.93 5.65785 163.031 5.62417C162.695 5.69153 162.325 5.75888 162.022 5.85991C159.701 6.36508 156.64 7.20701 154.319 7.84689C149.577 9.16031 143.287 11.1136 138.712 12.8312C135.887 13.9088 132.154 15.3233 129.362 16.502C126.032 17.9165 121.659 19.9708 118.397 21.4863C115.033 23.0691 110.66 25.3592 107.499 27.2451C103.732 29.4342 99.1235 32.2968 94.9863 34.9573C52.7065 64.0883 19.3064 110.833 23.9145 163.572C34.8124 287.909 175.476 373.214 228.418 405.343C240.639 412.752 247.108 417.904 247.826 420.801C247.826 420.801 248.061 420.767 248.162 420.733C251.055 420.194 254.721 419.42 257.614 418.814C257.715 418.814 257.816 418.78 257.917 418.746C258.959 418.41 259.699 416.894 260.406 416.086C258.018 411.438 253.275 408.104 227.813 391.4C162.291 348.428 96.3654 299.023 57.92 228.973C-28.8932 70.8912 139.52 -10.8778 211.668 8.38573C197.675 2.96365 180.656 2.35745 162.661 5.7252Z" fill="white"/>
<path d="M235.885 373.72C275.743 401.908 285.262 408.643 272.649 414.873C272.783 414.84 272.918 414.806 273.053 414.739C274.97 414.133 277.19 413.392 279.376 412.684C280.856 412.179 282.302 411.674 283.782 411.135C301.643 402.817 286.069 391.367 248.902 363.953C207.8 333.643 156.606 295.924 113.183 240.761C-15.0019 77.8962 121.794 -2.69412 211.668 8.38579C109.55 -13.774 -110.157 128.884 235.885 373.72Z" fill="white"/>
<path d="M259.329 341.995C305.814 377.693 323.237 391.063 300.163 404.366C300.331 404.265 300.533 404.198 300.701 404.13C304.569 402.278 309.379 399.752 313.079 397.833C331.074 387.291 323.876 375.067 313.449 363.448C269.723 314.75 211.634 282.521 166.866 235.035C22.7038 82.2405 119.406 6.26403 211.668 8.38571C117.657 -0.202054 -50.2516 104.299 259.329 341.995Z" fill="white"/>
<path d="M295.252 312.494C339.55 348.023 355.325 367.119 331.679 386.315C335.715 383.452 340.862 379.445 344.864 376.346C346.916 374.662 349.001 372.844 351.053 371.093C369.452 354.254 359.126 345.127 235.482 236.113C56.2718 78.0645 137.031 22.2608 195.455 10.6084C142.48 20.5096 -5.21394 71.43 295.252 312.494Z" fill="white"/>
<path d="M209.313 8.58765C204.941 8.99178 200.265 9.66533 195.456 10.6083C201.678 9.46326 206.589 8.85707 209.313 8.58765Z" fill="white"/>
<path d="M211.668 8.38574C211.668 8.38574 210.693 8.4531 209.313 8.58781C210.121 8.52045 210.894 8.4531 211.668 8.38574Z" fill="white"/>
<path d="M286.978 242.916C360.438 302.121 388.019 329.198 364.104 358.598C364.272 358.43 364.407 358.262 364.575 358.093C368.342 354.052 372.849 348.697 376.381 344.622C376.448 344.521 376.516 344.454 376.617 344.353C397.538 316.906 377.558 288.01 291.283 220.925C66.2619 45.8351 185.5 13.168 211.668 8.38574C192.597 10.8105 32.5928 37.9209 286.978 242.916Z" fill="white"/>
<path d="M302.181 195.532C385.328 257.7 408.2 289.492 392.627 321.284C393.266 320.24 393.871 319.196 394.477 318.152L395.049 317.141C395.486 316.4 395.856 315.727 396.26 315.02L401.002 305.859C401.574 304.681 402.146 303.502 402.684 302.391C421.251 259.788 350.919 208.531 304.233 174.517C152.2 63.8189 169.994 23.0691 211.668 8.38574C176.082 17.6807 113.654 54.524 302.181 195.532Z" fill="white"/>
<path d="M306.251 147.272C378.836 198.462 422.327 232.712 413.279 275.448C413.716 274 414.154 272.552 414.557 271.138C416.004 265.817 417.45 259.822 418.627 255.04C424.85 212.472 380.955 180.006 308.841 130.601C261.179 97.968 172.483 37.18 211.668 8.41943C150.216 37.2474 267.671 120.094 306.251 147.306V147.272Z" fill="white"/>
<path d="M311.565 109.62C393.367 162.73 421.15 186.843 422.63 223.45C422.663 222.743 422.731 222.002 422.764 221.295L423.033 212.371L422.832 203.715C422.798 202.705 422.731 201.762 422.697 200.752C419.569 162.359 368.443 130.703 303.829 90.7273C258.388 62.6066 206.858 30.714 211.702 8.41943C190.41 30.9497 263.332 78.3003 311.599 109.654L311.565 109.62Z" fill="white"/>
<path d="M306.285 75.7071C381.628 118.545 409.983 139.324 418.997 170.711C417.854 165.289 416.037 158.419 414.49 152.593C414.154 151.381 413.784 150.202 413.447 148.989C401.204 117.097 360.135 94.1961 288.895 56.6793C238.509 30.1414 221.927 19.7688 211.668 8.41943C217.521 25.2919 254.755 46.4414 306.285 75.7408V75.7071Z" fill="white"/>
<path d="M402.65 121.34C402.348 120.7 402.045 120.06 401.742 119.421L397.47 110.934L394.578 105.882C394.04 104.973 393.502 104.03 392.963 103.121C383.243 88.0331 365.685 76.7848 340.559 63.5832C299.053 41.8275 254.486 27.1778 211.702 8.38574C225.055 16.8725 249.575 28.1881 280.621 42.4674C362.994 80.3546 388.423 96.7556 402.684 121.34H402.65Z" fill="white"/>
<path d="M376.986 80.0852C376.583 79.6137 376.246 79.1422 375.809 78.637C375.54 78.334 375.305 78.0309 375.036 77.6941C374.733 77.3236 374.396 76.9195 374.06 76.549C370.932 72.9119 367.434 69.0053 364.642 65.8396C346.21 46.9465 294.748 27.6156 211.668 8.35205C337.7 46.1719 362.086 63.92 376.986 80.0515V80.0852Z" fill="white"/>
<path d="M342.409 45.6668C339.315 43.3093 335.951 40.8172 333.092 38.6618C332.487 38.2577 331.915 37.8536 331.309 37.4494C311.33 24.8204 271.102 15.0202 211.702 8.38574C248.667 13.8752 314.761 26.2685 345.066 47.8221C344.158 47.0812 343.317 46.374 342.443 45.6668H342.409Z" fill="white"/>
<path d="M258.556 8.35213C263.5 9.02568 268.344 9.9013 273.12 11.0127C281.596 12.4271 282.639 12.7639 289.097 14.8519C288.929 14.7845 288.693 14.6835 288.525 14.6161C285.296 13.3364 280.924 11.8546 277.627 10.6759H277.56C269.824 8.18374 260.709 7.81329 250.147 7.40916C250.618 7.44284 251.122 7.51019 251.593 7.54387C246.212 7.03871 240.729 6.76929 235.179 6.76929C226.636 7.17342 225.492 7.27445 211.702 8.38581C233.632 7.47652 243.588 7.6449 258.59 8.35213H258.556ZM254.486 7.81329C255.461 7.91432 256.437 8.04903 257.412 8.15007C256.437 8.01536 255.461 7.91432 254.486 7.81329Z" fill="white"/>
</g>
</g>
<defs>
<clipPath id="clip0_121_609">
<rect width="423" height="424" fill="white"/>
</clipPath>
</defs>
</svg>
