<svg width="140" height="50" viewBox="0 0 140 50" fill="none" xmlns="http://www.w3.org/2000/svg">
<path d="M84.3215 25.8433H78.6172L77.9608 21.5771H73.1884L72.498 25.8433H66.8276L71.8415 0.443359H79.2737L84.3215 25.8433ZM75.2973 8.32751L73.9127 16.9978H77.2326L75.8481 8.32751L75.6066 6.38256H75.5387L75.2973 8.32751Z" fill="white"/>
<path d="M98.2535 25.8433H85.9131V0.443359H98.046V5.29084H91.4778V10.6153H97.2839V15.2578H91.4778V20.925H98.2535V25.8396V25.8433Z" fill="white"/>
<path d="M100.363 25.8433V0.443359H107.829C110.225 0.443359 112.04 0.994804 113.273 2.09769C114.507 3.20058 115.122 4.8102 115.122 6.93028V9.01309C115.122 10.3805 114.839 11.5207 114.273 12.4447C113.707 13.365 112.885 13.9873 111.802 14.304V14.3375C113.737 14.7697 114.763 16.5209 114.88 19.5948L115.02 22.7694C115.111 24.2486 115.284 25.2732 115.537 25.8433H109.972C109.765 25.0236 109.614 23.7046 109.523 21.8826L109.384 18.9465C109.338 18.1939 109.131 17.6387 108.761 17.2736C108.391 16.9084 107.841 16.7258 107.101 16.7258H105.924V25.8433H100.359H100.363ZM107.346 12.5267C108.037 12.5267 108.58 12.318 108.972 11.8933C109.365 11.4722 109.561 10.7606 109.561 9.75829V7.57486C109.561 6.71044 109.395 6.07329 109.059 5.66344C108.723 5.25358 108.21 5.04865 107.52 5.04865H105.928V12.5267H107.346Z" fill="white"/>
<path d="M122.796 25.8433H117.231V0.443359H122.796V25.8433Z" fill="white"/>
<path d="M126.806 24.5094C125.516 23.3022 124.871 21.4839 124.871 19.0472V17.5456H130.333V19.0472C130.333 20.7537 131.035 21.6069 132.442 21.6069C133.042 21.6069 133.491 21.443 133.789 21.1113C134.087 20.7835 134.238 20.3326 134.238 19.7625V18.1231C134.238 17.5307 134.121 17.0612 133.891 16.7072C133.661 16.3533 133.321 16.0589 132.872 15.8205C132.423 15.582 131.575 15.1759 130.333 14.6095C129.043 13.9947 128.025 13.3986 127.274 12.8173C126.523 12.2361 125.976 11.5505 125.633 10.7531C125.286 9.95579 125.116 8.9684 125.116 7.78355V6.31551C125.116 4.31467 125.78 2.76094 127.104 1.65433C128.428 0.551445 130.186 0 132.374 0C134.725 0 136.528 0.633414 137.784 1.89652C139.041 3.15962 139.656 4.92946 139.633 7.20603V8.57345H134.378V7.20603C134.378 5.54424 133.71 4.71335 132.374 4.71335C131.82 4.71335 131.401 4.86239 131.114 5.15674C130.828 5.45109 130.681 5.83859 130.681 6.31924V7.78728C130.703 8.44677 130.922 8.9535 131.337 9.30747C131.752 9.66143 132.431 10.0415 133.378 10.4513C134.993 11.1108 136.264 11.789 137.2 12.482C138.132 13.175 138.814 13.9724 139.241 14.8703C139.667 15.7683 139.882 16.8786 139.882 18.1976V19.8371C139.882 21.864 139.203 23.4513 137.841 24.5989C136.479 25.7502 134.683 26.324 132.45 26.324C129.983 26.324 128.104 25.7204 126.814 24.5132L126.806 24.5094Z" fill="white"/>
<path d="M68.0937 48.4615C67.2487 47.5975 66.8276 46.3613 66.8276 44.7529V43.7069H69.0835V44.7529C69.0835 45.5843 69.2832 46.288 69.6851 46.8694C70.0871 47.4508 70.7789 47.7415 71.766 47.7415C72.5508 47.7415 73.1442 47.5187 73.5461 47.0705C73.9481 46.6222 74.1477 46.0081 74.1477 45.2284V44.0574C74.1477 43.3591 74.0219 42.8048 73.7731 42.3892C73.5215 41.9735 73.2016 41.6501 72.8079 41.4192C72.4141 41.1883 71.7934 40.8894 70.9402 40.5226C70.1035 40.1586 69.4281 39.7972 68.9113 39.4386C68.3945 39.0826 67.9788 38.6126 67.6698 38.0312C67.3608 37.4498 67.205 36.7026 67.205 35.7897V34.7681C67.205 33.5075 67.6152 32.5104 68.4328 31.7795C69.2503 31.0486 70.3359 30.6846 71.6895 30.6846C73.2098 30.6846 74.361 31.1111 75.1485 31.967C75.9333 32.8228 76.3271 33.9884 76.3271 35.4637V36.4092H74.1477V35.4637C74.1477 33.6216 73.3383 32.7005 71.7168 32.7005C70.9977 32.7005 70.4508 32.8907 70.0761 33.2738C69.7015 33.6569 69.5129 34.1541 69.5129 34.7681V35.8142C69.5129 36.3793 69.625 36.8357 69.8519 37.1835C70.0761 37.5313 70.3578 37.803 70.6914 37.9931C71.025 38.1833 71.5172 38.4116 72.1707 38.6778C73.1223 39.0609 73.9044 39.4657 74.5141 39.8977C75.1239 40.3297 75.5997 40.8813 75.9415 41.5523C76.2833 42.2234 76.4556 43.0684 76.4556 44.0791V45.2745C76.4556 46.652 76.0372 47.7442 75.2032 48.5485C74.3665 49.3527 73.2235 49.7548 71.7715 49.7548C70.1691 49.7548 68.9441 49.3228 68.1019 48.4615H68.0937Z" fill="white"/>
<path d="M82.9662 49.4586H80.6856V33.0021H77.0762V30.9617H86.5975V33.0021H82.9634V49.4586H82.9662Z" fill="white"/>
<path d="M89.2525 48.2741C88.4513 47.2878 88.0493 45.7555 88.0493 43.6797V30.959H90.3298V43.9052C90.3298 45.1822 90.5513 46.1413 90.9943 46.7797C91.4373 47.4182 92.0853 47.7388 92.9358 47.7388C93.7862 47.7388 94.4342 47.4182 94.8772 46.7797C95.3202 46.1413 95.5417 45.1822 95.5417 43.9052V30.959H97.8222V43.6797C97.8222 45.7391 97.4175 47.2634 96.6081 48.2605C95.7987 49.2576 94.5737 49.7548 92.9385 49.7548C91.3033 49.7548 90.0564 49.2603 89.2552 48.2741H89.2525Z" fill="white"/>
<path d="M100.831 49.4586V30.9617H104.941C106.243 30.9617 107.295 31.2143 108.099 31.7197C108.9 32.225 109.491 33.0265 109.866 34.1215C110.24 35.2164 110.429 36.67 110.429 38.4794V41.8158C110.429 43.6579 110.24 45.1359 109.866 46.2472C109.491 47.3584 108.906 48.1735 108.113 48.687C107.32 49.2005 106.273 49.4586 104.968 49.4586H100.834H100.831ZM104.739 47.4426C105.925 47.4426 106.789 47.0432 107.331 46.2472C107.872 45.4511 108.146 44.0655 108.146 42.0903V38.2077C108.146 36.2814 107.875 34.9311 107.331 34.1486C106.787 33.3689 105.923 32.9776 104.739 32.9776H103.109V47.4426H104.739Z" fill="white"/>
<path d="M115.512 49.4586H113.231V30.9617H115.512V49.4586Z" fill="white"/>
<path d="M119.545 48.1382C118.727 47.0595 118.317 45.4158 118.317 43.2096V37.159C118.317 34.9692 118.722 33.3417 119.531 32.2794C120.34 31.2171 121.606 30.6873 123.326 30.6873C125.046 30.6873 126.315 31.2198 127.135 32.2794C127.953 33.3417 128.363 34.9692 128.363 37.159V43.2096C128.363 45.4185 127.959 47.0595 127.149 48.1382C126.34 49.2168 125.074 49.7575 123.354 49.7575C121.634 49.7575 120.362 49.2195 119.545 48.1382ZM125.41 46.6955C125.861 45.9972 126.085 44.8941 126.085 43.3835V36.9851C126.085 35.5071 125.861 34.4258 125.41 33.7357C124.959 33.0483 124.275 32.7032 123.356 32.7032C122.438 32.7032 121.727 33.0483 121.276 33.7357C120.824 34.4258 120.6 35.5071 120.6 36.9851V43.3835C120.6 44.8941 120.824 45.9972 121.276 46.6955C121.727 47.3937 122.419 47.7415 123.356 47.7415C124.294 47.7415 124.959 47.3937 125.41 46.6955Z" fill="white"/>
<path d="M131.486 48.4615C130.641 47.5975 130.22 46.3613 130.22 44.7529V43.7069H132.476V44.7529C132.476 45.5843 132.676 46.288 133.078 46.8694C133.48 47.4508 134.171 47.7415 135.159 47.7415C135.943 47.7415 136.537 47.5187 136.939 47.0705C137.341 46.6222 137.54 46.0081 137.54 45.2284V44.0574C137.54 43.3591 137.415 42.8048 137.166 42.3892C136.914 41.9735 136.594 41.6501 136.2 41.4192C135.807 41.1883 135.186 40.8894 134.333 40.5226C133.496 40.1586 132.821 39.7972 132.304 39.4386C131.787 39.0826 131.371 38.6126 131.062 38.0312C130.753 37.4498 130.598 36.7026 130.598 35.7897V34.7681C130.598 33.5075 131.008 32.5104 131.825 31.7795C132.643 31.0486 133.728 30.6846 135.082 30.6846C136.602 30.6846 137.754 31.1111 138.541 31.967C139.326 32.8228 139.72 33.9884 139.72 35.4637V36.4092H137.54V35.4637C137.54 33.6216 136.731 32.7005 135.109 32.7005C134.39 32.7005 133.843 32.8907 133.469 33.2738C133.094 33.6569 132.905 34.1541 132.905 34.7681V35.8142C132.905 36.3793 133.018 36.8357 133.245 37.1835C133.469 37.5313 133.75 37.803 134.084 37.9931C134.418 38.1833 134.91 38.4116 135.563 38.6778C136.515 39.0609 137.297 39.4657 137.907 39.8977C138.517 40.3297 138.992 40.8813 139.334 41.5523C139.676 42.2234 139.848 43.0684 139.848 44.0791V45.2745C139.848 46.652 139.43 47.7442 138.596 48.5485C137.759 49.3527 136.616 49.7548 135.164 49.7548C133.562 49.7548 132.337 49.3228 131.494 48.4615H131.486Z" fill="white"/>
<path fill-rule="evenodd" clip-rule="evenodd" d="M59.7249 32.1484L56.2683 28.4878L56.2819 28.4734L29.9539 0.546631L26.4794 4.22627L26.4774 4.2242L4.30029 27.7599L4.29216 27.7513L0.189941 32.0957L17.0798 49.9824L17.0883 49.9911L29.9387 36.3823L42.8574 49.9999L43.4448 49.3778L43.4503 49.3835L59.7249 32.1484ZM51.5341 32.134L29.9488 9.23796L8.40251 32.1043L17.0882 41.3026L29.9511 27.6805L34.0534 32.0249L42.8538 41.3266L51.5341 32.134Z" fill="white"/>
<path d="M33.0603 21.5377C33.0603 23.2265 31.6712 24.5955 29.9576 24.5955C28.2441 24.5955 26.855 23.2265 26.855 21.5377C26.855 19.849 28.2441 18.48 29.9576 18.48C31.6712 18.48 33.0603 19.849 33.0603 21.5377Z" fill="white"/>
</svg>
